<svg width="122" height="118" viewBox="0 0 122 118" fill="none" xmlns="http://www.w3.org/2000/svg">
<path fill-rule="evenodd" clip-rule="evenodd" d="M61.0001 0.103027C27.6531 0.103027 0.612061 27.138 0.612061 60.491C0.612061 87.173 17.9151 109.808 41.9091 117.794C44.9261 118.354 46.0341 116.484 46.0341 114.889C46.0341 113.449 45.9781 108.692 45.9521 103.646C29.1521 107.299 25.6071 96.521 25.6071 96.521C22.8601 89.541 18.9021 87.685 18.9021 87.685C13.4221 83.937 19.3151 84.015 19.3151 84.015C25.3781 84.44 28.5721 90.238 28.5721 90.238C33.9581 99.468 42.6991 96.8 46.1451 95.258C46.6871 91.355 48.2521 88.69 49.9791 87.182C36.5661 85.657 22.4651 80.478 22.4651 57.339C22.4651 50.746 24.8251 45.359 28.6881 41.129C28.0601 39.609 25.9931 33.467 29.2721 25.149C29.2721 25.149 34.3421 23.526 45.8821 31.339C50.7001 30 55.8671 29.327 61.0001 29.304C66.1301 29.327 71.3001 29.998 76.1271 31.337C87.6531 23.524 92.7171 25.147 92.7171 25.147C96.0041 33.464 93.9371 39.607 93.3101 41.127C97.1821 45.357 99.5251 50.744 99.5251 57.337C99.5251 80.531 85.3981 85.637 71.9511 87.133C74.1181 89.007 76.0481 92.683 76.0481 98.316C76.0481 106.396 75.9781 112.899 75.9781 114.888C75.9781 116.495 77.0661 118.378 80.1261 117.785C104.106 109.791 121.389 87.163 121.389 60.491C121.388 27.14 94.3501 0.103027 61.0001 0.103027Z" fill="#181616"/>
<path d="M23.4841 86.8061C23.3511 87.1061 22.8791 87.196 22.4491 86.991C22.0091 86.795 21.7641 86.3861 21.9061 86.0851C22.0361 85.7751 22.5091 85.6901 22.9461 85.8971C23.3861 86.0941 23.6361 86.5071 23.4831 86.8071L23.4841 86.8061ZM25.9301 89.5351C25.6431 89.8021 25.0801 89.678 24.6981 89.255C24.3021 88.835 24.2281 88.2721 24.5211 88.0011C24.8191 87.7351 25.3651 87.861 25.7611 88.281C26.1551 88.707 26.2331 89.2651 25.9311 89.5361L25.9301 89.5351ZM28.3121 93.0121C27.9421 93.2701 27.3361 93.029 26.9621 92.492C26.5921 91.954 26.5921 91.3091 26.9721 91.0521C27.3451 90.7941 27.9421 91.027 28.3221 91.559C28.6901 92.104 28.6901 92.7501 28.3121 93.0121ZM31.5731 96.3731C31.2431 96.7381 30.5371 96.64 30.0211 96.143C29.4941 95.656 29.3471 94.963 29.6781 94.599C30.0141 94.233 30.7231 94.3351 31.2421 94.8291C31.7691 95.3151 31.9281 96.0091 31.5751 96.3721L31.5731 96.3731ZM36.0731 98.324C35.9261 98.797 35.2481 99.012 34.5631 98.81C33.8801 98.603 33.4331 98.05 33.5731 97.572C33.7131 97.095 34.3961 96.872 35.0851 97.087C35.7681 97.293 36.2151 97.843 36.0731 98.324ZM41.0161 98.685C41.0331 99.183 40.4531 99.5951 39.7361 99.6051C39.0131 99.6221 38.4281 99.218 38.4211 98.728C38.4211 98.225 38.9891 97.8181 39.7111 97.8041C40.4281 97.7911 41.0171 98.191 41.0171 98.684L41.0161 98.685ZM45.6141 97.9031C45.7001 98.3881 45.2011 98.887 44.4881 99.02C43.7881 99.15 43.1381 98.848 43.0481 98.367C42.9621 97.869 43.4701 97.37 44.1701 97.241C44.8841 97.118 45.5241 97.4101 45.6141 97.9031Z" fill="#181616"/>
</svg>
